<?xml version="1.0" encoding="utf-8"?>
<!-- Generator: Adobe Illustrator 26.3.1, SVG Export Plug-In . SVG Version: 6.00 Build 0)  -->
<!DOCTYPE svg PUBLIC "-//W3C//DTD SVG 1.1//EN" "http://www.w3.org/Graphics/SVG/1.1/DTD/svg11.dtd" [
	<!ENTITY ns_extend "http://ns.adobe.com/Extensibility/1.0/">
	<!ENTITY ns_ai "http://ns.adobe.com/AdobeIllustrator/10.0/">
	<!ENTITY ns_graphs "http://ns.adobe.com/Graphs/1.0/">
	<!ENTITY ns_vars "http://ns.adobe.com/Variables/1.0/">
	<!ENTITY ns_imrep "http://ns.adobe.com/ImageReplacement/1.0/">
	<!ENTITY ns_sfw "http://ns.adobe.com/SaveForWeb/1.0/">
	<!ENTITY ns_custom "http://ns.adobe.com/GenericCustomNamespace/1.0/">
	<!ENTITY ns_adobe_xpath "http://ns.adobe.com/XPath/1.0/">
]>
<svg version="1.1" id="Layer_1" xmlns:x="&ns_extend;" xmlns:i="&ns_ai;" xmlns:graph="&ns_graphs;"
	 xmlns="http://www.w3.org/2000/svg" xmlns:xlink="http://www.w3.org/1999/xlink" x="0px" y="0px" viewBox="0 0 42 77"
	 style="enable-background:new 0 0 42 77;" xml:space="preserve">
<style type="text/css">
	.st0{fill:none;}
	.st1{fill:#000;}
</style>
<metadata>
	<sfw  xmlns="&ns_sfw;">
		<slices></slices>
		<sliceSourceBounds  bottomLeftOrigin="true" height="106.7" width="44.4" x="1848.6" y="-1428"></sliceSourceBounds>
	</sfw>
</metadata>
<rect x="23" y="23" class="st0" width="22" height="85"/>
<g>
	<path class="st1" d="M3.2,76.2c-1,0-1.9-0.7-2.1-2.1c0-0.4,0.1-0.8,0.4-1L35.6,39L1,4.4C0.7,4.1,0.6,3.7,0.6,3.3
		C0.9,1.2,3,0.8,4.1,1.9l35.7,35.7c0.4,0.4,0.6,0.9,0.6,1.4s-0.2,1-0.6,1.4L4.6,75.6C4.2,76,3.7,76.2,3.2,76.2z"/>
</g>
</svg>
