<?xml version="1.0" encoding="utf-8"?>
<!-- Generator: Adobe Illustrator 27.5.0, SVG Export Plug-In . SVG Version: 6.00 Build 0)  -->
<!DOCTYPE svg PUBLIC "-//W3C//DTD SVG 1.1//EN" "http://www.w3.org/Graphics/SVG/1.1/DTD/svg11.dtd" [
	<!ENTITY ns_extend "http://ns.adobe.com/Extensibility/1.0/">
	<!ENTITY ns_ai "http://ns.adobe.com/AdobeIllustrator/10.0/">
	<!ENTITY ns_graphs "http://ns.adobe.com/Graphs/1.0/">
	<!ENTITY ns_vars "http://ns.adobe.com/Variables/1.0/">
	<!ENTITY ns_imrep "http://ns.adobe.com/ImageReplacement/1.0/">
	<!ENTITY ns_sfw "http://ns.adobe.com/SaveForWeb/1.0/">
	<!ENTITY ns_custom "http://ns.adobe.com/GenericCustomNamespace/1.0/">
	<!ENTITY ns_adobe_xpath "http://ns.adobe.com/XPath/1.0/">
]>
<svg version="1.1" id="Layer_1" xmlns:x="&ns_extend;" xmlns:i="&ns_ai;" xmlns:graph="&ns_graphs;"
	 xmlns="http://www.w3.org/2000/svg" xmlns:xlink="http://www.w3.org/1999/xlink" x="0px" y="0px" viewBox="0 0 24 24"
	 style="enable-background:new 0 0 24 24;" xml:space="preserve">
<metadata>
	<sfw  xmlns="&ns_sfw;">
		<slices></slices>
		<sliceSourceBounds  bottomLeftOrigin="true" height="14.3" width="21.8" x="0.9" y="-19.7"></sliceSourceBounds>
	</sfw>
</metadata>
<g>
	<path d="M2,5.8c0.3-0.2,0.5-0.3,0.8-0.3c0.3-0.1,0.5-0.1,0.8-0.1c5.5,0,10.9,0,16.4,0c0.5,0,1,0.1,1.5,0.4c0,0,0.1,0,0.1,0
		c0,0,0,0,0,0c-0.2,0.1-0.3,0.3-0.5,0.4c-2.9,2.4-5.8,4.8-8.6,7.1c-0.4,0.3-0.9,0.3-1.2,0C8.1,10.8,5.1,8.3,2,5.8
		C2.1,5.8,2,5.8,2,5.8z"/>
	<path d="M14,13c2.5,2.1,5,4.2,7.6,6.3c-0.1,0.1-0.3,0.1-0.4,0.2c-0.4,0.2-0.8,0.2-1.2,0.2c-5.5,0-10.9,0-16.4,0
		c-0.5,0-1-0.1-1.5-0.4c0,0,0,0-0.1,0c0,0,0,0,0,0c0,0,0,0,0.1-0.1c2.5-2,5-4.1,7.4-6.1c0.1-0.1,0.1-0.1,0.2,0
		c0.3,0.3,0.6,0.5,1,0.8c0.7,0.5,1.7,0.5,2.4,0C13.3,13.6,13.6,13.4,14,13C14,13.1,14,13.1,14,13z"/>
	<path d="M14.6,12.5c2.5-2.1,5-4.2,7.6-6.2c0.1,0.1,0.2,0.3,0.3,0.4c0.1,0.3,0.2,0.6,0.2,0.9c0,3.3,0,6.6,0,9.9
		c0,0.5-0.2,0.9-0.5,1.3C19.7,16.7,17.1,14.6,14.6,12.5z"/>
	<path d="M1.4,18.8c-0.3-0.4-0.5-0.8-0.5-1.2c0-3.3,0-6.7,0-10c0-0.5,0.2-0.9,0.5-1.2c0,0,0,0,0,0c2.5,2.1,5,4.2,7.6,6.2
		C6.4,14.6,3.9,16.7,1.4,18.8z"/>
</g>
</svg>
