<?xml version="1.0" encoding="utf-8"?>
<!-- Generator: Adobe Illustrator 27.5.0, SVG Export Plug-In . SVG Version: 6.00 Build 0)  -->
<!DOCTYPE svg PUBLIC "-//W3C//DTD SVG 1.1//EN" "http://www.w3.org/Graphics/SVG/1.1/DTD/svg11.dtd" [
	<!ENTITY ns_extend "http://ns.adobe.com/Extensibility/1.0/">
	<!ENTITY ns_ai "http://ns.adobe.com/AdobeIllustrator/10.0/">
	<!ENTITY ns_graphs "http://ns.adobe.com/Graphs/1.0/">
	<!ENTITY ns_vars "http://ns.adobe.com/Variables/1.0/">
	<!ENTITY ns_imrep "http://ns.adobe.com/ImageReplacement/1.0/">
	<!ENTITY ns_sfw "http://ns.adobe.com/SaveForWeb/1.0/">
	<!ENTITY ns_custom "http://ns.adobe.com/GenericCustomNamespace/1.0/">
	<!ENTITY ns_adobe_xpath "http://ns.adobe.com/XPath/1.0/">
]>
<svg version="1.1" id="Layer_1" xmlns:x="&ns_extend;" xmlns:i="&ns_ai;" xmlns:graph="&ns_graphs;"
	 xmlns="http://www.w3.org/2000/svg" xmlns:xlink="http://www.w3.org/1999/xlink" x="0px" y="0px" viewBox="0 0 24 24"
	 style="enable-background:new 0 0 24 24;" xml:space="preserve">
<metadata>
	<sfw  xmlns="&ns_sfw;">
		<slices></slices>
		<sliceSourceBounds  bottomLeftOrigin="true" height="20.7" width="20.9" x="1.5" y="-22.4"></sliceSourceBounds>
	</sfw>
</metadata>
<path d="M1.5,5.1c0-0.1,0-0.2,0.1-0.3c0.1-0.5,0.3-1,0.7-1.3c0.5-0.4,0.9-0.9,1.3-1.3c1-0.8,1.9-0.8,2.8-0.1c1,0.8,1.7,1.8,2.2,2.9
	c0.3,0.8,0.1,1.6-0.5,2.2C7.8,7.6,7.6,7.9,7.3,8.1C7,8.4,6.9,8.9,7,9.3c0.2,0.5,0.4,0.9,0.7,1.3c0.7,1.1,1.6,2,2.5,2.9
	c1,1,1.9,1.9,3.1,2.6c0.5,0.3,1,0.6,1.5,0.7c0.4,0.1,0.7,0,0.9-0.3c0.3-0.3,0.5-0.5,0.8-0.8c0.7-0.6,1.5-0.8,2.4-0.5
	c1.2,0.5,2.2,1.2,3,2.3c0.6,0.8,0.6,1.6,0,2.3c-0.2,0.3-0.5,0.6-0.7,0.9c-0.3,0.3-0.6,0.6-0.9,0.9c-0.4,0.5-1,0.6-1.6,0.7
	c-1.2,0.1-2.4-0.2-3.5-0.7c-2.3-0.9-4.4-2.3-6.3-3.9c-2.1-1.8-4-3.9-5.5-6.3C2.7,10,2,8.5,1.6,6.9c-0.1-0.3-0.1-0.7-0.2-1
	C1.5,5.6,1.5,5.4,1.5,5.1z"/>
</svg>
