<?xml version="1.0" encoding="utf-8"?>
<!-- Generator: Adobe Illustrator 27.5.0, SVG Export Plug-In . SVG Version: 6.00 Build 0)  -->
<!DOCTYPE svg PUBLIC "-//W3C//DTD SVG 1.1//EN" "http://www.w3.org/Graphics/SVG/1.1/DTD/svg11.dtd" [
	<!ENTITY ns_extend "http://ns.adobe.com/Extensibility/1.0/">
	<!ENTITY ns_ai "http://ns.adobe.com/AdobeIllustrator/10.0/">
	<!ENTITY ns_graphs "http://ns.adobe.com/Graphs/1.0/">
	<!ENTITY ns_vars "http://ns.adobe.com/Variables/1.0/">
	<!ENTITY ns_imrep "http://ns.adobe.com/ImageReplacement/1.0/">
	<!ENTITY ns_sfw "http://ns.adobe.com/SaveForWeb/1.0/">
	<!ENTITY ns_custom "http://ns.adobe.com/GenericCustomNamespace/1.0/">
	<!ENTITY ns_adobe_xpath "http://ns.adobe.com/XPath/1.0/">
]>
<svg version="1.1" id="Layer_1" xmlns:x="&ns_extend;" xmlns:i="&ns_ai;" xmlns:graph="&ns_graphs;"
	 xmlns="http://www.w3.org/2000/svg" xmlns:xlink="http://www.w3.org/1999/xlink" x="0px" y="0px" viewBox="0 0 24 24"
	 style="enable-background:new 0 0 24 24;" xml:space="preserve">
<metadata>
	<sfw  xmlns="&ns_sfw;">
		<slices></slices>
		<sliceSourceBounds  bottomLeftOrigin="true" height="21" width="21.7" x="1.1" y="-23"></sliceSourceBounds>
	</sfw>
</metadata>
<g>
	<path d="M4.9,23c0.4-0.5,0.5-1,0.5-1.6c0-0.4,0.1-0.9,0.1-1.3c0-0.5-0.1-1-0.3-1.4c0,0-0.1-0.1-0.1-0.1c-1.1-0.7-2-1.5-2.7-2.6
		c-0.6-1-1.1-2.1-1.2-3.3c-0.2-1.5,0-3,0.6-4.3c0.4-0.9,0.9-1.6,1.5-2.4C4,5.3,4.7,4.7,5.5,4.2C6,3.9,6.5,3.7,7,3.5
		C7.9,3.2,8.7,3.1,9.6,3c0.9-0.1,1.9,0,2.8,0.2c0.9,0.2,1.7,0.5,2.5,1c0.9,0.5,1.8,1.2,2.5,2.1C18,7.1,18.5,8,18.8,9
		c0.3,1,0.5,2,0.4,3c-0.1,1.2-0.4,2.3-1,3.4c-0.7,1.3-1.7,2.3-2.9,3.1c-1.1,0.7-2.3,1.2-3.6,1.4c-0.5,0.1-0.9,0.1-1.4,0.1
		c-0.1,0-0.2,0.1-0.2,0.2c-0.3,0.6-0.7,1-1.2,1.5c-1,0.7-2,1.2-3.2,1.3C5.5,23,5.2,23,4.9,23C5,23,4.9,23,4.9,23z M10.2,12.4
		C10.2,12.4,10.2,12.4,10.2,12.4c-0.2-1-0.5-1.8-0.7-2.7c0-0.1-0.1-0.1-0.1-0.1c-0.3,0-0.7,0-1,0c-0.1,0-0.1,0-0.1,0.1
		c0,0.6-0.1,1.2-0.1,1.8c0,0.7-0.1,1.4-0.1,2c0,0.1,0,0.1,0.1,0.1c0.2,0,0.4,0,0.6,0c0.1,0,0.1,0,0.2-0.1c0-0.8,0.1-1.7,0.1-2.5
		c0-0.2,0-0.3,0-0.5c0,0.1,0,0.2,0.1,0.2c0.2,0.9,0.5,1.8,0.7,2.7c0,0,0.1,0.1,0.1,0.1c0.2,0,0.4,0,0.5,0c0.1,0,0.1,0,0.1-0.1
		c0.1-0.3,0.2-0.5,0.2-0.8c0.2-0.7,0.4-1.4,0.6-2.2c0,0,0,0,0-0.1c0,0.4,0,0.8,0,1.2c0,0.6,0,1.2,0.1,1.9c0,0.1,0,0.1,0.1,0.1
		c0.2,0,0.4,0,0.6,0c0.3,0,0.2,0.1,0.2-0.2c0-0.7-0.1-1.4-0.1-2.1c0-0.5-0.1-1.1-0.1-1.6c0-0.1,0-0.1-0.1-0.1c-0.3,0-0.7,0-1,0
		c-0.1,0-0.1,0-0.1,0.1c-0.1,0.3-0.2,0.5-0.2,0.8c-0.2,0.5-0.3,1-0.4,1.5C10.3,12.2,10.2,12.3,10.2,12.4z M4.1,12.8
		C4.1,12.8,4.1,12.8,4.1,12.8C4,13.1,4,13.2,3.9,13.4c0,0.1,0,0.1,0.1,0.2c0.5,0.2,0.9,0.2,1.4,0.2c0.3,0,0.6-0.1,0.9-0.4
		c0.5-0.4,0.5-1.1,0.1-1.6c-0.2-0.2-0.5-0.4-0.8-0.5c-0.2-0.1-0.4-0.2-0.6-0.3c-0.1-0.1-0.2-0.2-0.2-0.3c0-0.2,0.1-0.2,0.3-0.3
		c0.2-0.1,0.4-0.1,0.6,0c0.2,0,0.4,0.1,0.5,0.1c0.1,0,0.1,0,0.1-0.1c0-0.2,0.1-0.4,0.1-0.5c0-0.1,0-0.1-0.1-0.2
		C6.1,9.6,5.7,9.6,5.3,9.6c-0.4,0-0.8,0.2-1.1,0.6c-0.3,0.4-0.2,1,0.1,1.3c0.2,0.3,0.6,0.4,0.9,0.5c0.1,0.1,0.3,0.1,0.4,0.2
		c0.1,0.1,0.2,0.2,0.2,0.3c0,0.2-0.1,0.4-0.3,0.4c-0.3,0.1-0.7,0.1-1,0C4.4,12.9,4.2,12.8,4.1,12.8z M16.1,10.5
		C16.1,10.5,16.1,10.5,16.1,10.5c0.1-0.3,0.2-0.5,0.2-0.7c0,0,0-0.1-0.1-0.1c-0.1,0-0.2-0.1-0.4-0.1c-0.5-0.1-1.1-0.1-1.5,0.2
		c-0.6,0.3-0.8,1.3-0.2,1.8c0.3,0.2,0.5,0.3,0.8,0.4c0.2,0.1,0.3,0.2,0.4,0.3c0.2,0.1,0.2,0.4,0,0.5c-0.1,0.1-0.2,0.1-0.3,0.2
		c-0.3,0.1-0.5,0-0.8-0.1c-0.1,0-0.3-0.1-0.4-0.2c-0.1,0.2-0.1,0.4-0.2,0.6c0,0.1,0,0.1,0.1,0.2c0.3,0.1,0.7,0.2,1,0.2
		c0.5,0,1-0.1,1.3-0.5c0.4-0.4,0.4-1.1,0-1.5c-0.2-0.2-0.5-0.3-0.8-0.5c-0.2-0.1-0.4-0.2-0.6-0.3c-0.2-0.1-0.2-0.4,0-0.6
		c0.1-0.1,0.2-0.1,0.3-0.1C15.5,10.3,15.8,10.4,16.1,10.5z"/>
	<path d="M22.5,18.6c-0.1,0-0.1,0.1-0.2,0.1c-0.8,0.2-1.6,0.2-2.4,0.2c-0.5-0.1-1-0.2-1.4-0.3c-0.4-0.2-0.8-0.4-1.1-0.7
		c0.2-0.2,0.4-0.4,0.5-0.6c0.6-0.7,1.1-1.6,1.5-2.5c0.4-0.9,0.6-1.7,0.6-2.7c0.1-1.1,0-2.1-0.3-3.2c-0.3-1.1-0.8-2-1.5-2.9
		c-0.5-0.6-1-1.2-1.6-1.6c-0.6-0.5-1.3-1-2.1-1.3C14,3,13.6,2.8,13.1,2.6c-0.2-0.1-0.5-0.1-0.7-0.2c0,0,0,0-0.1,0
		c0.1,0,0.3-0.1,0.4-0.1C13.3,2.1,14,2,14.8,2c1.4,0,2.6,0.3,3.9,0.9c0.7,0.3,1.3,0.8,1.8,1.3c1,0.9,1.6,2,2,3.2
		c0.4,1.2,0.4,2.5,0.2,3.7c-0.2,1.3-0.8,2.4-1.6,3.4c-0.1,0.1-0.1,0.1-0.2,0.2c0,0,0,0.1,0,0.1c-0.1,0.7,0.1,1.3,0.3,1.9
		c0.2,0.4,0.4,0.9,0.6,1.2C22,18.3,22.2,18.5,22.5,18.6z"/>
</g>
</svg>
