<?xml version="1.0" encoding="utf-8"?>
<!-- Generator: Adobe Illustrator 26.3.1, SVG Export Plug-In . SVG Version: 6.00 Build 0)  -->
<!DOCTYPE svg PUBLIC "-//W3C//DTD SVG 1.1//EN" "http://www.w3.org/Graphics/SVG/1.1/DTD/svg11.dtd" [
	<!ENTITY ns_extend "http://ns.adobe.com/Extensibility/1.0/">
	<!ENTITY ns_ai "http://ns.adobe.com/AdobeIllustrator/10.0/">
	<!ENTITY ns_graphs "http://ns.adobe.com/Graphs/1.0/">
	<!ENTITY ns_vars "http://ns.adobe.com/Variables/1.0/">
	<!ENTITY ns_imrep "http://ns.adobe.com/ImageReplacement/1.0/">
	<!ENTITY ns_sfw "http://ns.adobe.com/SaveForWeb/1.0/">
	<!ENTITY ns_custom "http://ns.adobe.com/GenericCustomNamespace/1.0/">
	<!ENTITY ns_adobe_xpath "http://ns.adobe.com/XPath/1.0/">
]>
<svg version="1.1" id="Layer_1" xmlns:x="&ns_extend;" xmlns:i="&ns_ai;" xmlns:graph="&ns_graphs;"
	 xmlns="http://www.w3.org/2000/svg" xmlns:xlink="http://www.w3.org/1999/xlink" x="0px" y="0px" viewBox="0 0 80.6 61.7"
	 style="enable-background:new 0 0 80.6 61.7;" xml:space="preserve">
<style type="text/css">
	.st0{fill:#3DB079;}
</style>
<metadata>
	<sfw  xmlns="&ns_sfw;">
		<slices></slices>
		<sliceSourceBounds  bottomLeftOrigin="true" height="49.8" width="62" x="92" y="-312.7"></sliceSourceBounds>
	</sfw>
</metadata>
<path class="st0" d="M58.4,56.1c-12.4,0-24.7,0-37.1,0C21,56.1,20.8,56,20.5,56c-2.9-0.6-5-3.2-4.8-6.3c0.1-1.5,0.4-3.1,0.6-4.6
	c0.3-2.1,0.6-4.1,0.9-6.2c0.3-2.7,1.7-4.2,4.3-4.9c1-0.3,2-0.6,3-1c3.5-1.4,5.9-3.9,6.7-7.7c0.2-0.8,0.3-1.7,0.4-2.5
	c0-0.3,0.1-0.5,0.5-0.5c0.5,0,1-0.2,1.5-0.2c1.8-0.1,3.6-0.2,5.4-0.3c3-0.1,5.9,0,8.9,0.5c0.2,0,0.3,0.1,0.4,0.4
	c0.1,0.8,0.2,1.6,0.4,2.4c0.5,2.6,1.8,4.7,3.9,6.3c1.7,1.3,3.7,2.1,5.8,2.6c2.1,0.5,3.7,1.7,4.2,3.9c0.4,1.6,0.5,3.2,0.7,4.8
	c0.2,1.5,0.5,3.1,0.7,4.6c0.1,1.1,0.3,2.2,0.3,3.2c-0.2,2.3-1.4,4.1-3.5,5.1C59.9,55.8,59.1,55.9,58.4,56.1z M47.8,40.5
	c0-4.3-3.5-7.8-7.9-7.8c-4.3,0-7.8,3.5-7.8,7.8c0,4.1,3.3,7.7,7.9,7.8C44.4,48.3,47.8,44.7,47.8,40.5z"/>
<path class="st0" d="M39.9,15.5c-2.7,0.1-5.4,0.2-8,0.5c-1.5,0.2-3,0.5-4.4,1.1c-0.5,0.2-0.9,0.5-1.3,0.8c-0.6,0.5-0.9,1.1-0.9,1.8
	c0,1,0,2.1-0.1,3.1c-0.1,2-1.2,3.4-3,4.2c-1.4,0.6-2.8,1-4.3,1.2c-0.8,0.1-1.6,0.2-2.4,0.3c-1.9,0.1-3.6-0.2-4.9-1.7
	c-0.9-1-1.4-2.3-1.5-3.6c-0.2-1.5-0.2-3.1-0.2-4.6c0-1.1,0.6-2.1,1.3-2.9c1.3-1.6,3-2.7,4.7-3.8c3.5-2.1,7.4-3.3,11.3-4.3
	c3.2-0.7,6.5-1.2,9.9-1.3c3.1-0.2,6.2-0.1,9.3,0.1C50.6,7,55.7,8,60.6,10c2.7,1.1,5.3,2.4,7.5,4.4c0.9,0.8,1.8,1.7,2.3,2.8
	c0.3,0.6,0.5,1.2,0.5,1.9c0,1.6,0,3.1-0.3,4.7c-0.2,0.9-0.5,1.8-1,2.6c-0.9,1.4-2.3,2.1-3.9,2.2c-2.7,0.2-5.4-0.3-7.9-1.3
	c-2.3-0.9-3.3-2.7-3.4-5.2c0-0.8,0-1.6,0-2.4c0-0.7-0.3-1.3-0.8-1.8c-0.9-0.8-2.1-1.1-3.2-1.4c-1.6-0.4-3.3-0.6-4.9-0.7
	C43.6,15.7,41.7,15.6,39.9,15.5z"/>
</svg>
