<?xml version="1.0" encoding="utf-8"?>
<!-- Generator: Adobe Illustrator 27.5.0, SVG Export Plug-In . SVG Version: 6.00 Build 0)  -->
<!DOCTYPE svg PUBLIC "-//W3C//DTD SVG 1.1//EN" "http://www.w3.org/Graphics/SVG/1.1/DTD/svg11.dtd" [
	<!ENTITY ns_extend "http://ns.adobe.com/Extensibility/1.0/">
	<!ENTITY ns_ai "http://ns.adobe.com/AdobeIllustrator/10.0/">
	<!ENTITY ns_graphs "http://ns.adobe.com/Graphs/1.0/">
	<!ENTITY ns_vars "http://ns.adobe.com/Variables/1.0/">
	<!ENTITY ns_imrep "http://ns.adobe.com/ImageReplacement/1.0/">
	<!ENTITY ns_sfw "http://ns.adobe.com/SaveForWeb/1.0/">
	<!ENTITY ns_custom "http://ns.adobe.com/GenericCustomNamespace/1.0/">
	<!ENTITY ns_adobe_xpath "http://ns.adobe.com/XPath/1.0/">
]>
<svg version="1.1" id="Layer_1" xmlns:x="&ns_extend;" xmlns:i="&ns_ai;" xmlns:graph="&ns_graphs;"
	 xmlns="http://www.w3.org/2000/svg" xmlns:xlink="http://www.w3.org/1999/xlink" x="0px" y="0px" viewBox="0 0 24 24"
	 style="enable-background:new 0 0 24 24;" xml:space="preserve">
<metadata>
	<sfw  xmlns="&ns_sfw;">
		<slices></slices>
		<sliceSourceBounds  bottomLeftOrigin="true" height="21.6" width="22.6" x="0.7" y="-22.8"></sliceSourceBounds>
	</sfw>
</metadata>
<g>
	<path d="M12.3,22.8c-0.5,0-1-0.1-1.3-0.4c-0.5-0.4-0.8-0.9-1-1.5c-0.2-0.5,0-0.9,0.4-1.3c0.4-0.4,0.9-0.6,1.3-0.9
		c0.2-0.1,0.4-0.2,0.7-0.3c0.4-0.1,0.8,0,1.1,0.3c0.1,0.1,0.2,0.2,0.3,0.4c0.1,0.1,0.1,0.2,0.2,0.2c0.3,0.3,0.6,0.4,0.9,0.2
		c0.5-0.3,1-0.5,1.4-0.8c1.2-0.8,2.3-1.8,3.1-3c0.1-0.1,0.2-0.3,0.3-0.4c0.1-0.3,0.1-0.5,0-0.7c-0.1-0.1-0.2-0.2-0.3-0.3
		c-0.1-0.1-0.2-0.3-0.3-0.5c-0.3-0.4-0.3-0.9,0-1.4c0.3-0.6,0.7-1.1,1.3-1.5c0.6-0.5,1.2-0.5,1.8,0c0.4,0.3,0.7,0.7,1,1
		c0.2,0.3,0.2,0.6,0.2,0.9c-0.1,0.9-0.4,1.7-0.8,2.5c-0.8,1.5-1.9,2.8-3.1,3.9c-1.1,1-2.2,1.8-3.5,2.5
		C14.7,22.4,13.5,22.7,12.3,22.8z"/>
	<path d="M0.7,10.9c0-1.7,0.7-3.9,2.2-5.8c0.8-1,1.8-1.9,2.9-2.5c1.3-0.7,2.6-1.2,4.1-1.3C12,1,14.1,1.4,16,2.4c1.7,0.9,3,2.2,4,3.9
		c0.5,0.9,0.9,1.8,1.1,2.8c0,0.1,0,0.3,0,0.4c-0.1,0.2-0.3,0.3-0.5,0.3c-0.2,0-0.4-0.1-0.5-0.4c-0.1-0.2-0.1-0.5-0.2-0.7
		c-0.6-1.8-1.6-3.3-3.1-4.4c-1.1-0.9-2.4-1.5-3.8-1.8c-1-0.2-2-0.3-3-0.2C8.4,2.4,6.8,3.1,5.4,4.1C4.2,5,3.3,6.2,2.7,7.5
		c-0.7,1.5-1,3-0.9,4.7c0.2,2.4,1.1,4.4,2.8,6c1.2,1.2,2.7,2.1,4.5,2.5c0.3,0.1,0.5,0.3,0.4,0.6c-0.1,0.3-0.3,0.5-0.6,0.4
		c-1.2-0.3-2.4-0.8-3.4-1.5c-1.7-1.1-2.9-2.6-3.8-4.4C1,14.4,0.7,13,0.7,10.9z"/>
	<path d="M10.1,14c0.5,0.4,0.6,1.1,0.9,1.6c0.1,0.1,0,0.2-0.1,0.2c0,0,0,0,0,0c-0.7,0-0.5,0.1-0.8-0.5c-0.1-0.3-0.2-0.5-0.3-0.8
		c-0.2-0.3-0.3-0.3-0.7-0.3c0,0-0.1,0.1-0.1,0.1c0,0.4,0,0.8,0,1.2c0,0.2,0,0.2-0.2,0.2c-0.1,0-0.3,0-0.4,0c-0.1,0-0.1-0.1-0.1-0.2
		c0-1.2,0-2.3,0-3.5c0-0.1,0.1-0.2,0.2-0.2c0.5,0,1,0,1.6,0c0.7,0.1,1,0.6,0.9,1.3C10.7,13.6,10.5,13.9,10.1,14z M8.9,13.1
		C8.9,13.1,8.9,13.1,8.9,13.1c0,0.1,0,0.3,0,0.4c0,0,0,0.1,0.1,0.1c0.2,0,0.4,0,0.7,0C9.9,13.5,10,13.3,10,13c0-0.3-0.1-0.4-0.4-0.5
		c-0.2,0-0.4,0-0.6,0c0,0-0.1,0.1-0.1,0.1C8.9,12.8,8.9,12.9,8.9,13.1z"/>
	<path d="M11.7,9.1c0,0.2-0.1,0.5-0.2,0.8c-0.2,0.5-0.6,0.9-1.1,1C10,11,9.6,11,9.2,10.9c-0.5-0.2-0.8-0.6-0.9-1.1
		c-0.1-0.4-0.1-0.9,0-1.3C8.4,7.7,9,7.2,9.8,7.1c0.3,0,0.6,0,0.9,0.1c0.6,0.2,0.9,0.6,1,1.2C11.7,8.6,11.7,8.8,11.7,9.1z M9,9.1
		C9,9.1,9,9.1,9,9.1c0,0.1,0,0.3,0,0.4c0.1,0.6,0.3,0.9,0.9,0.9c0.5,0,0.8-0.2,0.9-0.6c0.1-0.4,0.1-0.8,0-1.2
		c-0.1-0.5-0.4-0.7-0.8-0.7c-0.6,0-0.9,0.2-1,0.7C9,8.6,9,8.8,9,9.1z"/>
	<path d="M14.6,13.8c0-0.5,0-1.1,0-1.6c0-0.2,0.1-0.3,0.3-0.3c0.6,0,1.2,0,1.8,0c0.1,0,0.2,0,0.2,0.2c0.1,0.4,0,0.5-0.4,0.5
		c-0.3,0-0.6,0-1,0c-0.1,0-0.1,0-0.1,0.1c0,0.2,0,0.5,0,0.7c0,0.1,0,0.1,0.1,0.1c0.3,0,0.6,0,0.9,0c0.2,0,0.2,0,0.2,0.2
		c0,0,0,0.1,0,0.1c0,0.3,0,0.3-0.3,0.3c-0.3,0-0.6,0-0.9,0c-0.1,0-0.1,0-0.1,0.1c0,0.3,0,0.6,0,0.9c0,0.1,0.1,0.1,0.1,0.1
		c0.4,0,0.8,0,1.2,0c0.2,0,0.2,0,0.2,0.2c0,0.4,0,0.4-0.4,0.4c-0.5,0-1,0-1.5,0c-0.3,0-0.4-0.1-0.4-0.4
		C14.6,14.9,14.6,14.4,14.6,13.8C14.6,13.8,14.6,13.8,14.6,13.8z"/>
	<path d="M12.4,12.5c0,0.3,0,0.6,0,0.8c0,0.1,0.1,0.1,0.1,0.1c0.3,0,0.6,0,0.9,0c0.2,0,0.2,0,0.2,0.2c0,0.4,0,0.4-0.4,0.4
		c-0.3,0-0.5,0-0.8,0c-0.1,0-0.1,0-0.1,0.1c0,0.3,0,0.6,0,0.8c0,0.1,0,0.1,0.1,0.1c0.4,0,0.8,0,1.2,0c0.1,0,0.2,0.1,0.2,0.2
		c0,0,0,0,0,0c0,0.4,0,0.4-0.4,0.4c-0.5,0-1.1,0-1.6,0c-0.3,0-0.3,0-0.3-0.3c0-1.1,0-2.2,0-3.3c0-0.2,0.1-0.3,0.3-0.3
		c0.6,0,1.2,0,1.8,0c0.1,0,0.2,0.1,0.2,0.2c0,0.1,0,0.1,0,0.2c0,0.2,0,0.2-0.3,0.2C13.3,12.5,12.9,12.5,12.4,12.5
		C12.5,12.5,12.4,12.5,12.4,12.5z"/>
	<path d="M6.1,12.6c0,0.3,0,0.6,0,0.9c0,0.1,0.1,0.1,0.1,0.1c0.3,0,0.7,0,1,0c0.1,0,0.2,0,0.2,0.2c0,0.4,0,0.5-0.4,0.5
		c-0.2,0-0.5,0-0.7,0c-0.1,0-0.1,0-0.1,0.1c0,0.4,0,0.8,0,1.2c0,0.1-0.1,0.2-0.2,0.2c-0.2,0-0.3,0-0.5,0c-0.1,0-0.1-0.1-0.1-0.2
		c0-0.7,0-1.3,0-2c0-0.5,0-1,0-1.5c0-0.2,0.1-0.3,0.3-0.3c0.6,0,1.1,0,1.7,0c0.2,0,0.2,0,0.2,0.2c0,0.5,0,0.4-0.4,0.4
		c-0.3,0-0.5,0-0.8,0C6.2,12.6,6.2,12.6,6.1,12.6z"/>
	<path d="M7,7.8C7,7.9,7,8,7,8.1c0,0.8,0,1.7,0,2.5c0,0.3,0,0.3-0.3,0.3c-0.1,0-0.2,0-0.3,0c-0.2,0-0.2,0-0.2-0.3c0-0.9,0-1.8,0-2.7
		c0-0.1,0-0.2-0.2-0.2c-0.2,0-0.5,0-0.7,0c-0.1,0-0.2-0.1-0.2-0.2c0-0.4,0-0.4,0.4-0.4c0.7,0,1.5,0,2.2,0c0.1,0,0.2,0.1,0.2,0.2
		c0,0,0,0,0,0c0,0.4,0,0.4-0.4,0.4C7.5,7.8,7.3,7.8,7,7.8z"/>
	<path d="M12.3,9c0-0.5,0-1.1,0-1.6c0-0.1,0.1-0.2,0.2-0.2c0.1,0,0.3,0,0.4,0c0.1,0,0.2,0.1,0.2,0.2c0,0.9,0,1.8,0,2.7
		c0,0.1,0,0.2,0.2,0.2c0.3,0,0.6,0,0.9,0c0.1,0,0.2,0.1,0.2,0.2c0,0,0,0,0,0c0.1,0.4,0,0.4-0.4,0.4c-0.5,0-0.9,0-1.4,0
		c-0.2,0-0.3-0.1-0.3-0.3C12.3,10.1,12.3,9.6,12.3,9C12.3,9,12.3,9,12.3,9z"/>
	<path d="M15.6,10.3c0.3,0,0.7,0,1,0c0.2,0,0.2,0,0.3,0.3c0,0.4,0,0.4-0.4,0.4c-0.5,0-0.9,0-1.4,0c-0.3,0-0.3-0.1-0.3-0.3
		c0-1,0-2,0-3c0,0,0-0.1,0-0.1c0-0.3,0-0.3,0.3-0.4c0.4,0,0.4,0,0.4,0.4C15.6,8.5,15.6,9.3,15.6,10.3C15.6,10.2,15.6,10.3,15.6,10.3
		z"/>
</g>
</svg>
